<svg xmlns="http://www.w3.org/2000/svg" xmlns:xlink="http://www.w3.org/1999/xlink" width="500" zoomAndPan="magnify" viewBox="0 0 375 374.999991" height="500" preserveAspectRatio="xMidYMid meet" version="1.0">
  <defs>
    <clipPath id="9f816108cd">
      <path d="M 37.5 42.226562 L 337.5 42.226562 L 337.5 345.976562 L 37.5 345.976562 Z M 37.5 42.226562 " clip-rule="nonzero"/>
    </clipPath>
    <clipPath id="7841469106">
      <path d="M 133 164 L 243 164 L 243 345.976562 L 133 345.976562 Z M 133 164 " clip-rule="nonzero"/>
    </clipPath>
  </defs>
  <g clip-path="url(#9f816108cd)">
    <path fill="#ffffff" d="M 66.003906 327.945312 L 186.941406 82.949219 C 187.175781 82.476562 187.855469 82.476562 188.09375 82.949219 L 309 327.945312 L 291.167969 344.714844 C 290.746094 345.113281 291.027344 345.824219 291.609375 345.824219 L 336.695312 345.824219 C 337.171875 345.824219 337.480469 345.324219 337.273438 344.898438 L 188.089844 42.582031 C 187.855469 42.105469 187.175781 42.101562 186.9375 42.582031 L 37.730469 344.898438 C 37.523438 345.324219 37.832031 345.824219 38.308594 345.824219 L 83.394531 345.824219 C 83.972656 345.824219 84.257812 345.113281 83.832031 344.714844 Z M 66.003906 327.945312 " fill-opacity="1" fill-rule="nonzero"/>
  </g>
  <g clip-path="url(#7841469106)">
    <path fill="#ffffff" d="M 242.59375 286.914062 C 242.214844 282.363281 241.214844 277.976562 239.644531 273.679688 C 236.511719 265.300781 231.269531 258.402344 224.78125 252.378906 C 221.582031 249.433594 218.257812 246.609375 214.933594 243.847656 C 210.886719 240.496094 206.777344 237.199219 202.699219 233.90625 C 202.691406 233.910156 202.679688 233.914062 202.667969 233.921875 C 202.667969 233.917969 202.667969 233.914062 202.667969 233.90625 C 201.738281 233.160156 200.816406 232.410156 199.890625 231.660156 C 198.527344 230.558594 197.171875 229.457031 195.828125 228.355469 C 195.453125 228.074219 195.109375 227.757812 194.730469 227.476562 C 191.1875 224.625 187.644531 221.769531 184.285156 218.695312 C 184.273438 218.695312 184.261719 218.695312 184.25 218.691406 C 182.589844 217.15625 180.960938 215.589844 179.421875 213.898438 C 178.921875 213.363281 178.449219 212.800781 178.042969 212.234375 C 177.984375 212.140625 177.917969 212.046875 177.824219 211.953125 C 177.488281 211.523438 177.210938 211.097656 176.90625 210.644531 L 176.914062 210.636719 C 176.417969 209.863281 175.980469 209.070312 175.601562 208.265625 C 171.796875 201.269531 172.378906 192.84375 177.121094 187.03125 C 178.363281 185.441406 179.890625 184.105469 181.667969 183.097656 C 189.425781 178.453125 199.96875 180.390625 206.347656 188.042969 C 211.933594 194.742188 212.636719 203.800781 208.71875 210.511719 C 208.359375 211.128906 209.136719 211.777344 209.6875 211.320312 C 214.226562 207.554688 217.394531 202.632812 218.519531 197.132812 C 219.246094 194.199219 219.425781 191.171875 219.019531 188.164062 C 216.996094 173.1875 200.917969 162.808594 183.410156 165.179688 C 173.175781 166.5625 164.109375 172.082031 159.074219 179.992188 L 159.085938 180 C 155.722656 184.792969 153.550781 190.484375 153.003906 196.644531 C 152.429688 201.039062 152.621094 205.632812 153.699219 210.230469 C 154.460938 213.453125 155.667969 216.5625 157.226562 219.460938 C 157.273438 219.554688 157.988281 220.867188 158.097656 221.074219 C 158.105469 221.089844 158.113281 221.105469 158.125 221.117188 C 158.753906 222.140625 160.117188 224.207031 161.273438 225.753906 L 162.285156 227.09375 C 163.625 229.003906 168.820312 234.59375 172.804688 238.140625 C 175.96875 240.945312 179.214844 243.660156 182.492188 246.296875 C 182.488281 246.296875 182.480469 246.296875 182.480469 246.296875 C 183.566406 247.167969 185.191406 248.515625 186.289062 249.394531 C 189.742188 252.09375 193.191406 254.757812 196.671875 257.425781 C 202.066406 261.566406 207.398438 265.894531 212.136719 270.914062 C 217.59375 276.75 220.414062 283.335938 220.730469 290.644531 C 221.449219 298.609375 219.382812 306.859375 214.238281 313.664062 C 203.199219 328.25 181.992188 331.074219 167.28125 319.9375 C 165.765625 318.789062 164.371094 317.535156 163.089844 316.1875 C 162.523438 315.566406 161.972656 314.929688 161.445312 314.261719 C 160.9375 313.632812 160.457031 312.992188 159.996094 312.339844 C 159.890625 312.191406 159.789062 312.042969 159.6875 311.890625 C 159.550781 311.683594 159.414062 311.480469 159.277344 311.273438 C 159.054688 310.925781 158.835938 310.578125 158.628906 310.222656 C 158.515625 310.035156 158.40625 309.847656 158.296875 309.65625 C 158.195312 309.480469 158.09375 309.300781 158 309.117188 C 157.878906 308.902344 157.765625 308.683594 157.648438 308.464844 C 152.945312 299.679688 151.40625 288.671875 154.136719 277.597656 C 156.671875 267.320312 162.425781 258.808594 169.847656 253.148438 C 170.421875 252.714844 169.949219 251.8125 169.265625 252.03125 C 148.433594 258.679688 133.53125 276.484375 133.53125 297.453125 C 133.53125 303.253906 134.691406 308.839844 136.792969 313.980469 C 144.292969 332.394531 163.988281 345.566406 187.105469 345.566406 C 207.144531 345.566406 224.652344 335.65625 233.808594 321.007812 C 226.46875 332.019531 216.085938 339.359375 202.789062 343.027344 C 202.785156 343.027344 202.777344 343.027344 202.773438 343.03125 C 202.777344 343.03125 202.785156 343.03125 202.789062 343.027344 C 216.085938 339.355469 226.46875 331.988281 233.808594 320.976562 C 234.910156 319.21875 235.921875 317.351562 236.816406 315.398438 C 235.953125 317.324219 234.960938 319.1875 233.839844 320.976562 C 235.125 319.0625 236.289062 317.054688 237.386719 314.921875 C 241.839844 306.136719 243.441406 296.761719 242.59375 286.910156 Z M 242.59375 286.914062 " fill-opacity="1" fill-rule="nonzero"/>
  </g>
  <path fill="#7ed957" d="M 173.328125 197.78125 C 173.484375 193.757812 174.816406 189.976562 177.121094 187.027344 C 172.378906 192.839844 171.796875 201.265625 175.601562 208.261719 C 175.382812 207.800781 175.175781 207.339844 174.996094 206.871094 C 173.683594 203.898438 173.15625 200.777344 173.328125 197.78125 Z M 173.328125 197.78125 " fill-opacity="1" fill-rule="nonzero"/>
</svg>